<svg width="18" height="18" viewBox="0 0 18 18" fill="none" xmlns="http://www.w3.org/2000/svg">
<g id="material-symbols:note-alt" clip-path="url(#clip0_1549_4310)">
<path id="Vector" d="M5.25 12.75H6.825L11.325 8.2875L9.7125 6.675L5.25 11.1375V12.75ZM11.85 7.7625L12.6375 6.9375C12.7125 6.8625 12.75 6.775 12.75 6.675C12.75 6.575 12.7125 6.4875 12.6375 6.4125L11.5875 5.3625C11.5125 5.2875 11.425 5.25 11.325 5.25C11.225 5.25 11.1375 5.2875 11.0625 5.3625L10.2375 6.15L11.85 7.7625ZM3.75 15.75C3.3375 15.75 2.98425 15.603 2.69025 15.309C2.39625 15.015 2.2495 14.662 2.25 14.25V3.75C2.25 3.3375 2.397 2.98425 2.691 2.69025C2.985 2.39625 3.338 2.2495 3.75 2.25H6.9C7.0625 1.8 7.3345 1.4375 7.716 1.1625C8.0975 0.8875 8.5255 0.75 9 0.75C9.475 0.75 9.90325 0.8875 10.2848 1.1625C10.6663 1.4375 10.938 1.8 11.1 2.25H14.25C14.6625 2.25 15.0158 2.397 15.3098 2.691C15.6038 2.985 15.7505 3.338 15.75 3.75V14.25C15.75 14.6625 15.603 15.0157 15.309 15.3097C15.015 15.6038 14.662 15.7505 14.25 15.75H3.75ZM9 3.1875C9.1625 3.1875 9.29675 3.13425 9.40275 3.02775C9.50875 2.92125 9.562 2.787 9.5625 2.625C9.5625 2.4625 9.50925 2.32825 9.40275 2.22225C9.29625 2.11625 9.162 2.063 9 2.0625C8.8375 2.0625 8.70325 2.11575 8.59725 2.22225C8.49125 2.32875 8.438 2.463 8.4375 2.625C8.4375 2.7875 8.49075 2.92175 8.59725 3.02775C8.70375 3.13375 8.838 3.187 9 3.1875Z" fill="#E4E4E4"/>
</g>
<defs>
<clipPath id="clip0_1549_4310">
<rect width="18" height="18" fill="white"/>
</clipPath>
</defs>
</svg>
