<svg width="18" height="18" viewBox="0 0 18 18" fill="none" xmlns="http://www.w3.org/2000/svg">
<path d="M14.25 15H3.75V6.75H14.25M12 1.5V3H6V1.5H4.5V3H3.75C2.9175 3 2.25 3.6675 2.25 4.5V15C2.25 15.3978 2.40804 15.7794 2.68934 16.0607C2.97064 16.342 3.35218 16.5 3.75 16.5H14.25C14.6478 16.5 15.0294 16.342 15.3107 16.0607C15.592 15.7794 15.75 15.3978 15.75 15V4.5C15.75 4.10218 15.592 3.72064 15.3107 3.43934C15.0294 3.15804 14.6478 3 14.25 3H13.5V1.5M12.75 9.75H9V13.5H12.75V9.75Z" fill="#474448" fill-opacity="0.8"/>
</svg>
