<svg width="18" height="18" viewBox="0 0 18 18" fill="none" xmlns="http://www.w3.org/2000/svg">
<g id="menu_FILL0_wght400_GRAD0_opsz24 1">
<g id="Group 9">
<path id="Vector" d="M5.59595 6.8439C6.24196 7.19176 6.70576 7.17519 7.00392 7.10894C7.69963 6.92673 7.98122 6.31384 8.6438 6.33041C9.02478 6.34697 9.35607 6.52918 9.35607 6.52918C9.50515 6.612 9.60454 6.69483 9.67079 6.76108" stroke="#E4E4E4" stroke-miterlimit="10" stroke-linecap="round"/>
<path id="Vector_2" d="M5.59595 6.16422C6.24196 6.51207 6.70576 6.49551 7.00392 6.42925C7.69963 6.24704 7.98122 5.63416 8.6438 5.65072C9.02478 5.66728 9.35607 5.84949 9.35607 5.84949C9.50515 5.93232 9.60454 6.01514 9.67079 6.08139" stroke="#E4E4E4" stroke-miterlimit="10" stroke-linecap="round"/>
<path id="Vector_3" d="M9.14075 4.19351C9.78676 4.54137 10.2506 4.5248 10.5487 4.45854C11.2444 4.27634 11.526 3.66345 12.1886 3.68002C12.5696 3.69658 12.9009 3.87879 12.9009 3.87879C13.05 3.96161 13.1493 4.04443 13.2156 4.11069" stroke="#E4E4E4" stroke-miterlimit="10" stroke-linecap="round"/>
<path id="Vector_4" d="M9.14075 3.51383C9.78676 3.86168 10.2506 3.84511 10.5487 3.77886C11.2444 3.59665 11.526 2.98376 12.1886 3.00033C12.5696 3.01689 12.9009 3.1991 12.9009 3.1991C13.05 3.28192 13.1493 3.36475 13.2156 3.431" stroke="#E4E4E4" stroke-miterlimit="10" stroke-linecap="round"/>
<path id="Vector_5" d="M14.9715 13.1534L14.1929 5.18589C14.1764 5.02025 14.0439 4.9043 13.8782 4.9043H12.8512C12.6856 4.9043 12.5531 5.02025 12.5365 5.18589L11.4929 13.1699H11.2113L10.466 7.50491C10.4328 7.30614 10.2837 7.17362 10.085 7.17362H9.3727C9.17393 7.17362 9.00828 7.3227 8.99172 7.50491L8.24632 13.1699H8.04755V8.69755C8.04755 8.59816 7.93159 8.5319 7.84877 8.59816L5.67883 10.0393V8.71411C5.67883 8.61473 5.56288 8.54847 5.48006 8.61473L3.32669 10.0393V11.2485L3.04509 11.646V13.1699H2.25V15.4393H3.06166H3.34325H3.70767H11.1782H12.3377H15.1868H15.75V13.1534H14.9715Z" fill="#E4E4E4"/>
</g>
</g>
</svg>
