<svg width="18" height="18" viewBox="0 0 18 18" fill="none" xmlns="http://www.w3.org/2000/svg">
<g id="ic:baseline-filter-alt">
<g id="Group">
<path id="Vector" d="M13.875 3H4.125C3.0915 3 2.25 3.84075 2.25 4.875V11.625C2.25 12.6593 3.0915 13.5 4.125 13.5H8.625V14.25H6C5.793 14.25 5.625 14.418 5.625 14.625C5.625 14.832 5.793 15 6 15H12C12.207 15 12.375 14.832 12.375 14.625C12.375 14.418 12.207 14.25 12 14.25H9.375V13.5H13.875C14.9085 13.5 15.75 12.6593 15.75 11.625V4.875C15.75 3.84075 14.9085 3 13.875 3ZM10.8 6.6L8.55 9.6C8.48475 9.687 8.385 9.741 8.277 9.74925C8.26725 9.75 8.259 9.75 8.25 9.75C8.151 9.75 8.05575 9.71025 7.9845 9.6405L7.2345 8.8905C7.08825 8.74425 7.08825 8.5065 7.2345 8.36025C7.38075 8.214 7.6185 8.214 7.76475 8.36025L8.20875 8.805L10.2 6.15C10.3253 5.985 10.5592 5.9505 10.725 6.07425C10.8907 6.1995 10.9245 6.43425 10.8 6.6Z" fill="white"/>
</g>
</g>
</svg>
