<svg width="63" height="20" viewBox="0 0 63 20" fill="none" xmlns="http://www.w3.org/2000/svg">
<g clip-path="url(#clip0_1182_20192)">
<path d="M16.0833 7.43685L12.5417 3.93685L13.7083 2.77018C14.0278 2.45074 14.4203 2.29102 14.8858 2.29102C15.3514 2.29102 15.7436 2.45074 16.0625 2.77018L17.2292 3.93685C17.5486 4.25629 17.7153 4.64185 17.7292 5.09352C17.7431 5.54518 17.5903 5.93046 17.2708 6.24935L16.0833 7.43685ZM14.875 8.66602L6.04167 17.4993H2.5V13.9577L11.3333 5.12435L14.875 8.66602Z" fill="#023BFF"/>
</g>
<path d="M30.8849 15.5V5.31818H37.7457V7.09304H33.0376V9.51918H37.3928V11.294H33.0376V13.7251H37.7656V15.5H30.8849ZM43.0666 15.5H39.4572V5.31818H43.0964C44.1206 5.31818 45.0022 5.52202 45.7413 5.92969C46.4804 6.33404 47.0488 6.91572 47.4466 7.67472C47.8476 8.43371 48.0481 9.34186 48.0481 10.3991C48.0481 11.4598 47.8476 12.3712 47.4466 13.1335C47.0488 13.8958 46.4771 14.4808 45.7314 14.8885C44.9889 15.2962 44.1007 15.5 43.0666 15.5ZM41.6099 13.6555H42.9771C43.6135 13.6555 44.1487 13.5429 44.5829 13.3175C45.0204 13.0888 45.3485 12.7358 45.5673 12.2585C45.7894 11.7779 45.9004 11.1581 45.9004 10.3991C45.9004 9.64678 45.7894 9.03196 45.5673 8.55469C45.3485 8.07741 45.0221 7.72609 44.5879 7.50071C44.1537 7.27533 43.6184 7.16264 42.9821 7.16264H41.6099V13.6555ZM51.7955 5.31818V15.5H49.6428V5.31818H51.7955ZM53.1788 7.09304V5.31818H61.541V7.09304H58.4238V15.5H56.296V7.09304H53.1788Z" fill="#023BFF"/>
<path d="M30 18.2841H62.0382V19.2386H30V18.2841Z" fill="#023BFF"/>
<defs>
<clipPath id="clip0_1182_20192">
<rect width="20" height="20" fill="white"/>
</clipPath>
</defs>
</svg>
