<svg width="18" height="19" viewBox="0 0 18 19" fill="none" xmlns="http://www.w3.org/2000/svg">
<g clip-path="url(#clip0_119_872)">
<path d="M8.25 13.5971H9.75V9.09711H8.25V13.5971ZM9 7.59711C9.2125 7.59711 9.39075 7.52511 9.53475 7.38111C9.67875 7.23711 9.7505 7.05911 9.75 6.84711C9.75 6.63461 9.678 6.45636 9.534 6.31236C9.39 6.16836 9.212 6.09661 9 6.09711C8.7875 6.09711 8.60925 6.16911 8.46525 6.31311C8.32125 6.45711 8.2495 6.63511 8.25 6.84711C8.25 7.05961 8.322 7.23786 8.466 7.38186C8.61 7.52586 8.788 7.59761 9 7.59711ZM9 17.3471C7.9625 17.3471 6.9875 17.1501 6.075 16.7561C5.1625 16.3621 4.36875 15.8279 3.69375 15.1534C3.01875 14.4784 2.4845 13.6846 2.091 12.7721C1.6975 11.8596 1.5005 10.8846 1.5 9.84711C1.5 8.80961 1.697 7.83461 2.091 6.92211C2.485 6.00961 3.01925 5.21586 3.69375 4.54086C4.36875 3.86586 5.1625 3.33161 6.075 2.93811C6.9875 2.54461 7.9625 2.34761 9 2.34711C10.0375 2.34711 11.0125 2.54411 11.925 2.93811C12.8375 3.33211 13.6313 3.86636 14.3063 4.54086C14.9813 5.21586 15.5157 6.00961 15.9097 6.92211C16.3037 7.83461 16.5005 8.80961 16.5 9.84711C16.5 10.8846 16.303 11.8596 15.909 12.7721C15.515 13.6846 14.9808 14.4784 14.3063 15.1534C13.6313 15.8284 12.8375 16.3629 11.925 16.7569C11.0125 17.1509 10.0375 17.3476 9 17.3471Z" fill="#474448"/>
</g>
<defs>
<clipPath id="clip0_119_872">
<rect width="18" height="18" fill="white" transform="translate(0 0.847107)"/>
</clipPath>
</defs>
</svg>
