<svg width="21" height="20" viewBox="0 0 21 20" fill="none" xmlns="http://www.w3.org/2000/svg">
<g id="mdi:eye">
<path id="Vector" d="M10.0715 7.5C9.40848 7.5 8.77259 7.76339 8.30375 8.23223C7.83491 8.70107 7.57152 9.33696 7.57152 10C7.57152 10.663 7.83491 11.2989 8.30375 11.7678C8.77259 12.2366 9.40848 12.5 10.0715 12.5C10.7346 12.5 11.3704 12.2366 11.8393 11.7678C12.3081 11.2989 12.5715 10.663 12.5715 10C12.5715 9.33696 12.3081 8.70107 11.8393 8.23223C11.3704 7.76339 10.7346 7.5 10.0715 7.5ZM10.0715 14.1667C8.96645 14.1667 7.90664 13.7277 7.12524 12.9463C6.34384 12.1649 5.90485 11.1051 5.90485 10C5.90485 8.89493 6.34384 7.83512 7.12524 7.05372C7.90664 6.27232 8.96645 5.83333 10.0715 5.83333C11.1766 5.83333 12.2364 6.27232 13.0178 7.05372C13.7992 7.83512 14.2382 8.89493 14.2382 10C14.2382 11.1051 13.7992 12.1649 13.0178 12.9463C12.2364 13.7277 11.1766 14.1667 10.0715 14.1667ZM10.0715 3.75C5.90485 3.75 2.34652 6.34167 0.904854 10C2.34652 13.6583 5.90485 16.25 10.0715 16.25C14.2382 16.25 17.7965 13.6583 19.2382 10C17.7965 6.34167 14.2382 3.75 10.0715 3.75Z" fill="#131515"/>
</g>
</svg>
