<svg width="1440" height="780" viewBox="0 0 1440 780" fill="none" xmlns="http://www.w3.org/2000/svg">
<path opacity="0.08" d="M752.406 739.209V691.024L696.465 664.783V716.366L644.364 740.805V690.125L589.384 715.915L536.321 691.025V643.742C537.936 643.396 539.13 642.213 539.13 640.792C539.13 640.514 539.071 640.249 538.984 639.993L589.862 616.128L590.342 615.904V563.421L535.365 589.212L481.34 563.87L427.319 589.21L374.258 564.321V514.543L429.239 488.751L374.258 462.96V411.375L318.797 437.393L318.317 437.617V487.4L268.879 464.209C268.963 463.953 269.025 463.688 269.025 463.411C269.025 461.991 267.83 460.807 266.216 460.461V362.497L319.757 337.381L320.237 337.158V284.673L264.776 310.691L264.296 310.916V361.602L211.237 386.493L159.13 362.049L211.717 337.38L212.197 337.157V284.672L156.735 310.69L156.255 310.914V411.381L106.817 388.19C106.902 387.935 106.963 387.671 106.963 387.392C106.963 385.972 105.769 384.788 104.154 384.442V336.258L51.0932 311.368L103.194 286.929L104.154 287.38V286.478L105.114 286.028L104.154 285.578V234.894L52.7962 210.803C52.8807 210.547 52.9421 210.282 52.9421 210.004C52.9421 208.313 51.2545 206.942 49.1732 206.942C47.0919 206.942 45.4042 208.313 45.4042 210.004C45.4042 211.424 46.6004 212.608 48.2132 212.954V260.236L-6.76794 286.029L47.2532 311.37L-5.32794 336.036L-5.80794 336.261V386.944L-6.76794 387.395L-5.80794 387.846V438.53L47.2321 463.411L-5.37018 488.085L-5.85018 488.308V540.79L49.6129 514.773L50.0929 514.549V464.751L50.1332 464.769V413.186L100.52 389.549C100.984 389.93 101.576 390.203 102.234 390.343V438.524L155.295 463.412L102.714 488.077L102.234 488.302V539.005L51.8919 562.62C51.2084 562.06 50.2618 561.712 49.2154 561.712C47.1341 561.712 45.4465 563.084 45.4465 564.775C45.4465 566.194 46.6426 567.378 48.2554 567.725V665.63L-5.3721 690.788L-5.8521 691.013V743.496L-5.7657 743.455V793.277L48.2554 818.616V819.518L49.2173 819.067L50.1754 819.516V818.618L103.717 793.502L104.197 793.277V740.794L51.89 765.331C51.2084 764.771 50.2618 764.424 49.2154 764.424C48.169 764.424 47.2225 764.771 46.5389 765.331L-2.92986 742.123L48.2554 718.113V718.163L103.235 692.373L158.216 718.163V666.565L211.715 641.469L212.195 641.246V593.065C213.807 592.719 215.004 591.535 215.004 590.115C215.004 588.424 213.316 587.053 211.235 587.053C209.153 587.053 207.466 588.424 207.466 590.115C207.466 590.393 207.525 590.658 207.612 590.914L156.734 614.78L156.254 615.005V664.764L104.195 640.346V539.863L157.214 514.993L212.195 540.783V489.2L262.581 465.565C263.046 465.945 263.637 466.217 264.296 466.359V514.543L315.654 538.634C315.569 538.89 315.508 539.155 315.508 539.432C315.508 539.71 315.567 539.974 315.654 540.23L264.776 564.098L264.296 564.322V665.627L214.214 689.122C213.531 688.344 212.415 687.834 211.15 687.834C209.069 687.834 207.381 689.205 207.381 690.896C207.381 692.316 208.577 693.5 210.19 693.846V743.495L264.211 718.152V767.935L320.152 794.176V741.691L267.145 716.826L319.277 692.372L369.677 716.012C369.592 716.268 369.531 716.533 369.531 716.811C369.531 718.502 371.219 719.873 373.3 719.873C375.383 719.873 377.069 718.502 377.069 716.811C377.069 715.391 375.873 714.209 374.26 713.861V615.904L427.321 591.012L479.422 615.454L426.841 640.121L426.361 640.344V691.027L425.401 691.478L426.361 691.929V741.711L372.82 766.826L372.34 767.049V819.53L427.801 793.514L428.281 793.29V743.512L480.382 767.951V768.851L481.342 768.4L536.323 794.191V745.107C536.982 744.966 537.575 744.694 538.042 744.312L588.426 767.946V819.515L642.447 794.174V794.185L697.909 768.169L698.389 767.944V718.165L747.829 741.356C747.742 741.613 747.683 741.877 747.683 742.156C747.683 743.847 749.37 745.218 751.452 745.218C753.533 745.218 755.221 743.847 755.221 742.156C755.215 740.738 754.021 739.555 752.406 739.209ZM158.175 311.816L210.277 287.375V336.255L158.175 360.695V311.816ZM48.1709 513.644L-3.9321 538.083V489.207L48.1709 464.768V513.644ZM102.277 743.493V792.372L50.1754 816.813V770.432C51.7882 770.086 52.9844 768.904 52.9844 767.483C52.9844 767.205 52.9229 766.94 52.8385 766.684L102.277 743.493ZM48.2554 770.432V816.811L-3.8457 792.372V743.495L45.5905 766.685C45.506 766.941 45.4445 767.205 45.4445 767.483C45.4465 768.904 46.6426 770.086 48.2554 770.432ZM642.445 741.693L590.344 766.133V717.265L642.445 692.826V741.693ZM534.401 739.209C533.743 739.351 533.151 739.623 532.687 740.003L483.262 716.817L534.401 692.827V739.209ZM482.3 665.683V616.804L531.738 639.995C531.654 640.251 531.592 640.514 531.592 640.792C531.592 642.211 532.787 643.394 534.399 643.74V690.124L482.3 665.683ZM534.401 637.843C533.743 637.985 533.151 638.257 532.685 638.639L483.26 615.454L534.401 591.463V637.843ZM481.34 667.036L533.441 691.476L509.773 702.579L481.342 715.915L429.241 691.475L452.909 680.372L481.34 667.036ZM482.3 718.168L531.738 741.36C531.654 741.616 531.592 741.88 531.592 742.158C531.592 742.435 531.652 742.7 531.738 742.956L482.3 766.147V718.168ZM588.424 615.002L538.038 638.636C537.573 638.255 536.98 637.984 536.321 637.842V590.565L588.424 566.124V615.002ZM320.237 536.484V490.101L372.34 514.541V563.421L322.902 540.23C322.986 539.974 323.048 539.71 323.048 539.432C323.048 538.014 321.852 536.83 320.237 536.484ZM320.237 542.384C320.895 542.242 321.489 541.971 321.953 541.59L371.376 564.773L320.237 588.76V542.384ZM373.3 513.19L321.197 488.75L346.75 476.763L373.298 464.309L425.399 488.75L373.3 513.19ZM320.237 438.519L372.34 414.077V462.958L320.237 487.399V438.519ZM266.216 311.816L318.317 287.375V336.255L266.216 360.695V311.816ZM264.296 412.281L247.252 420.276L212.197 436.72V387.841L264.298 363.4L264.296 412.281ZM210.277 487.399L184.226 475.179L158.175 462.96V414.083L184.226 426.303L210.277 438.522V487.399ZM158.175 363.404L210.277 387.843V436.72L184.226 424.501L158.175 412.281V363.404ZM102.232 384.443C101.576 384.584 100.984 384.857 100.518 385.236L50.1313 361.599V312.719L102.232 337.16V384.443ZM102.232 235.796V284.677L50.1313 260.235V212.954C50.7898 212.812 51.3812 212.541 51.8458 212.16L102.232 235.796ZM49.1713 261.587L101.272 286.029L50.1332 310.019V310.017L49.1732 310.467L48.2132 310.017V310.019L-2.92794 286.028L49.1713 261.587ZM-3.88794 337.161L48.2132 312.721V361.6L-3.88794 386.041V337.161ZM-3.88794 388.743L48.2132 413.185V462.064L-3.88794 437.624V388.743ZM49.1732 411.834L-2.92794 387.392L20.7399 376.289L49.1713 362.953L99.5713 386.595C99.4868 386.85 99.4253 387.116 99.4253 387.393C99.4253 387.671 99.4849 387.935 99.5713 388.192L49.1732 411.834ZM104.152 390.342C104.811 390.2 105.402 389.928 105.869 389.548L156.255 413.183V462.06L104.152 437.621V390.342ZM104.152 489.202L156.255 464.763V513.639L104.152 538.078V489.202ZM50.1754 567.723C51.7882 567.377 52.9844 566.194 52.9844 564.773C52.9844 564.495 52.9249 564.232 52.8385 563.976L102.275 540.785V589.663L50.1735 614.102L50.1754 567.723ZM102.277 640.341L50.1754 664.78V615.904L102.277 591.465V640.341ZM48.1709 716.35L-3.9321 740.791V691.911L48.1709 667.469V716.35ZM50.1754 666.583L102.277 642.144V691.021L50.1754 715.46V666.583ZM158.175 615.904L208.562 592.27C209.027 592.65 209.62 592.922 210.277 593.064V640.343L158.175 664.782V615.904ZM156.296 667.463V715.458L104.195 691.019V642.143L156.254 666.563V667.483L156.296 667.463ZM210.277 538.078L158.175 513.639V464.763L184.226 476.982L210.277 489.202V538.078ZM212.197 487.399V438.524L241.968 424.557L264.296 414.083V460.461C262.683 460.807 261.487 461.989 261.487 463.411C261.487 463.688 261.548 463.953 261.633 464.209L212.197 487.399ZM266.216 513.643V466.36C266.874 466.219 267.466 465.947 267.93 465.566L318.317 489.202V536.484C317.66 536.624 317.069 536.897 316.602 537.276L266.216 513.643ZM266.216 565.225L316.602 541.59C317.067 541.971 317.658 542.244 318.317 542.384V589.661L317.357 590.112L317.359 590.114L266.216 614.103V565.225ZM266.216 666.583L318.317 642.144V691.021L266.216 715.46V666.583ZM318.317 640.341L266.216 664.78V615.904L318.317 591.465V640.341ZM212.112 740.791V693.846C213.725 693.5 214.921 692.317 214.921 690.896C214.921 690.798 214.896 690.706 214.885 690.61L264.211 667.469V716.35L212.112 740.791ZM318.232 791.472L266.131 767.032V718.152L318.232 742.593V791.472ZM372.34 713.861C371.681 714.003 371.09 714.274 370.625 714.655L320.237 691.021V642.146L372.34 666.586V713.861ZM320.237 640.341V591.462L372.34 615.904V664.78L320.237 640.341ZM373.3 614.553L321.197 590.111L373.296 565.672L374.26 566.124V566.121L425.401 590.111L373.3 614.553ZM481.34 565.67L533.441 590.111L482.3 614.102L481.34 614.553L480.38 614.102L429.239 590.111L481.34 565.67ZM428.281 641.244L480.382 616.804V665.683L428.281 690.124V641.244ZM426.361 792.386L374.26 816.825V767.949L426.361 743.51V792.386ZM428.281 741.708V692.827L480.382 717.268V766.149L428.281 741.708ZM483.262 767.5L532.687 744.313C533.151 744.694 533.745 744.966 534.401 745.107V791.489L483.262 767.5ZM536.321 739.209V692.827L588.424 717.266V766.144L538.986 742.953C539.071 742.697 539.13 742.435 539.13 742.158C539.13 740.738 537.936 739.555 536.321 739.209ZM590.344 816.811V767.946L642.445 743.505V792.374L590.344 816.811ZM696.465 767.044L644.364 791.483V742.605L696.465 718.166V767.044ZM698.385 716.365V667.485L750.486 691.926V739.209C749.829 739.351 749.238 739.621 748.773 740.002L698.385 716.365ZM1455.68 421.802L1401.66 396.46L1454.24 371.793L1454.72 371.569V320.886L1455.68 320.436L1454.72 319.986V269.303L1401.68 244.422L1454.28 219.748L1454.77 219.525V167.045L1399.3 193.061L1398.82 193.286V243.084L1398.78 243.064V294.648L1348.4 318.284C1347.93 317.903 1347.34 317.63 1346.68 317.49V218.634L1292.66 193.293V142.614L1241.3 118.523C1241.38 118.264 1241.45 117.997 1241.45 117.718C1241.45 117.44 1241.39 117.175 1241.3 116.919L1292.18 93.054L1292.66 92.8294V43.0685L1344.72 67.4872V169.747L1397.02 145.211C1397.71 145.771 1398.65 146.117 1399.7 146.117C1401.78 146.117 1403.47 144.746 1403.47 143.055C1403.47 141.636 1402.27 140.451 1400.66 140.105V42.2027L1454.29 17.0461L1454.77 16.8215V-35.6647L1400.66 -10.282V-10.3319L1345.68 15.458L1290.7 -10.3319V41.2667L1237.2 66.3624L1236.72 66.587V114.768C1235.11 115.114 1233.91 116.298 1233.91 117.718C1233.91 119.137 1235.11 120.32 1236.72 120.668V168.856L1290.74 194.195V243.975L1238.64 268.414V218.626L1184.62 193.284V192.382L1183.66 192.833L1182.7 192.384V193.282L1129.16 218.4L1128.68 218.625V271.109L1180.98 246.574C1181.66 247.134 1182.61 247.483 1183.66 247.483C1184.71 247.483 1185.65 247.135 1186.34 246.574L1236.72 270.206V372.475L1291.7 346.684L1344.76 371.572L1397.83 396.462L1345.72 420.902L1344.76 420.451V421.353L1343.8 421.804L1344.76 422.255V472.937L1398.79 498.278V545.56C1397.17 545.906 1395.98 547.089 1395.98 548.51C1395.98 550.201 1397.66 551.572 1399.75 551.572C1401.83 551.572 1403.51 550.201 1403.51 548.51C1403.51 548.232 1403.45 547.967 1403.37 547.71L1454.25 523.843L1454.73 523.619V471.136L1400.71 496.478V447.597L1455.68 421.802ZM1400.75 194.186L1452.85 169.747V218.623L1400.75 243.062V194.186ZM1452.8 370.668L1400.7 395.109V346.23L1452.8 321.789V370.668ZM1452.8 319.087L1400.7 294.647V245.766L1452.8 270.208V319.087ZM1399.74 295.998L1451.84 320.438L1428.17 331.541L1399.74 344.879L1349.34 321.237C1349.43 320.981 1349.49 320.717 1349.49 320.438C1349.49 320.159 1349.43 319.895 1349.34 319.639L1399.74 295.998ZM1344.76 270.214V317.49C1344.1 317.632 1343.51 317.903 1343.04 318.285L1318.71 306.871L1292.66 294.651V245.775L1318.71 257.994L1344.76 270.214ZM1346.64 67.4872L1398.74 43.0482V91.9261L1346.64 116.365V67.4872ZM1346.64 167.045V118.168L1398.74 93.7295V140.107C1397.13 140.455 1395.93 141.637 1395.93 143.057C1395.93 143.334 1395.99 143.6 1396.08 143.855L1346.64 167.045ZM1400.75 -8.52072L1452.85 -32.9612V15.9198L1400.75 40.3603V-8.52072ZM1398.74 41.2464L1346.64 65.6854V16.809L1398.74 -7.62996V41.2464ZM1292.62 -7.62996L1344.72 16.809V65.6854L1292.66 41.2667V40.3463L1292.62 40.365V-7.62996H1292.62ZM1290.74 43.0482V91.9261L1240.35 115.56C1239.89 115.179 1239.3 114.908 1238.64 114.766V67.4872L1290.74 43.0482ZM1238.64 167.953V120.666C1239.29 120.526 1239.88 120.256 1240.35 119.878L1290.74 143.515V192.392L1238.64 167.953ZM1344.76 219.534V268.41L1318.71 256.191L1292.66 243.972V195.094L1344.76 219.534ZM1130.6 268.404V219.525L1182.7 195.084V241.469C1181.09 241.816 1179.89 242.998 1179.89 244.419C1179.89 244.697 1179.95 244.959 1180.03 245.215L1130.6 268.404ZM1184.62 241.469V195.086L1236.72 219.526V268.403L1187.28 245.213C1187.37 244.959 1187.43 244.695 1187.43 244.418C1187.43 243 1186.23 241.816 1184.62 241.469ZM1238.64 270.214L1290.74 245.775V294.648L1238.64 319.089V270.214ZM1238.64 320.892L1290.74 296.453V345.333L1238.64 369.773V320.892ZM1292.66 345.329V296.453L1318.71 308.673L1342.1 319.642C1342.01 319.898 1341.95 320.16 1341.95 320.438C1341.95 321.858 1343.15 323.04 1344.76 323.388V369.768L1292.66 345.329ZM1346.68 323.386C1347.34 323.244 1347.93 322.973 1348.4 322.592L1398.78 346.228V395.107L1346.68 370.667V323.386ZM1398.78 397.811L1399.74 397.362L1400.7 397.812V397.811L1451.84 421.802L1399.74 446.243L1347.64 421.802L1398.78 397.811ZM1346.68 423.155L1398.78 447.595V496.475L1346.68 472.034V423.155ZM1452.8 473.836V522.715L1402.42 546.351C1401.95 545.97 1401.36 545.699 1400.7 545.559V498.276L1452.8 473.836ZM1133.41 168.396C1133.41 168.118 1133.35 167.853 1133.26 167.597L1184.14 143.731L1184.62 143.506V42.1996L1234.7 18.7044C1235.39 19.4828 1236.5 19.993 1237.76 19.993C1239.85 19.993 1241.53 18.6217 1241.53 16.9307C1241.53 15.5111 1240.34 14.327 1238.72 13.9807V-35.6678L1184.7 -10.3225V-60.1052L1128.76 -86.346V-33.8614L1181.77 -8.99652L1129.64 15.458L1079.24 -8.18221C1079.32 -8.43805 1079.38 -8.70169 1079.38 -8.98093C1079.38 -10.672 1077.7 -12.0432 1075.61 -12.0432C1073.53 -12.0432 1071.85 -10.672 1071.85 -8.98093C1071.85 -7.56133 1073.04 -6.37728 1074.65 -6.03096V40.3447L1074.65 91.9292L1021.59 116.817L969.493 92.377L1022.07 67.7087L1022.55 67.484V16.8043L1023.51 16.3535L1022.55 15.9026V-33.8785L1076.09 -58.993L1076.57 -59.2176V-111.701L1021.11 -85.683L1020.63 -85.4599V-35.6803L968.533 -60.1208V-61.021L967.573 -60.5701L912.591 -86.3632V-37.2793C911.933 -37.1374 911.34 -36.8644 910.873 -36.4837L860.488 -60.1162V-111.687L806.467 -86.3444V-86.3554L751.008 -60.3392L750.528 -60.1146V-10.3366L698.427 -34.7755V-35.6756L697.467 -35.2264L696.507 -35.6756V-34.7755L643.448 -9.88884L588.465 -35.6772V15.9026L536.365 40.3416V-9.44112L480.424 -35.6819L426.403 -61.0225V-9.43801L376.017 14.196C375.333 13.6375 374.389 13.2896 373.342 13.2896C371.261 13.2896 369.573 14.6609 369.573 16.3519C369.573 18.043 371.261 19.4142 373.342 19.4142C374.389 19.4142 375.335 19.0663 376.017 18.5078L426.403 42.1434V93.7279L481.864 67.7087L482.344 67.484V17.7029L534.445 42.1418V93.7217L586.75 69.186C587.215 69.5666 587.808 69.8396 588.465 69.98V118.161L644.408 144.4V93.7217L698.429 119.062V66.5792L645.37 41.691L697.465 17.2536L752.448 43.0466V-8.53477L804.549 -32.9737V66.5917L751.008 91.7077L750.528 91.9324V144.419L802.835 119.881C803.518 120.441 804.463 120.788 805.509 120.788C807.591 120.788 809.278 119.416 809.278 117.725C809.278 116.306 808.082 115.123 806.469 114.775V67.4887L860.01 42.3712L860.49 42.1465V-7.63464L912.593 16.8043V64.0879C910.981 64.4342 909.784 65.6167 909.784 67.0379C909.784 67.3156 909.846 67.5792 909.93 67.8366L859.052 91.703L858.572 91.9261V144.408L913.553 118.618L967.576 143.96L1021.6 118.619L1075.62 143.96L1128.68 119.07V165.447C1127.07 165.794 1125.87 166.976 1125.87 168.397C1125.87 170.088 1127.56 171.46 1129.64 171.46C1131.72 171.458 1133.41 170.087 1133.41 168.396ZM1182.7 142.606L1132.31 166.24C1131.85 165.859 1131.25 165.588 1130.6 165.446V118.168L1131.56 117.718L1182.7 93.7279V142.606ZM1076.57 43.0482L1128.68 67.4872V116.367L1076.57 91.9261V43.0482ZM1130.6 67.4872L1182.7 43.0482V91.9261L1130.6 116.365V67.4872ZM1182.7 41.2464L1130.6 65.6854V16.809L1182.7 -7.62996V41.2464ZM1236.8 -32.9612V13.9854C1235.19 14.3317 1234 15.5142 1234 16.9338C1234 17.0321 1234.02 17.1241 1234.03 17.2208L1184.7 40.3603V-8.52072L1236.8 -32.9612ZM1130.68 -83.6441L1182.78 -59.2036V-10.3241L1130.68 -34.7646V-83.6441ZM1076.58 -6.03096C1077.23 -6.17292 1077.83 -6.44437 1078.29 -6.825L1128.68 16.8106V65.6854L1076.58 41.2464V-6.03096ZM967.575 40.794L915.473 16.3535L939.141 5.25095L967.573 -8.08704L1019.67 16.3535L996.006 27.456L967.575 40.794ZM914.513 -31.3794C915.17 -31.5214 915.761 -31.7928 916.228 -32.1734L965.654 -8.98872L914.513 15.0025V-31.3794ZM966.613 -10.3381L917.174 -33.5291C917.259 -33.7849 917.32 -34.0501 917.32 -34.3278C917.32 -34.6055 917.259 -34.8691 917.174 -35.125L966.613 -58.3159V-10.3381ZM966.613 42.145V91.026L917.174 67.8335C917.259 67.5776 917.32 67.314 917.32 67.0379C917.32 65.6183 916.126 64.4358 914.511 64.0879V17.7044L966.613 42.145ZM914.513 69.9863C915.172 69.8443 915.763 69.5729 916.23 69.1907L965.654 92.377L914.513 116.367V69.9863ZM1020.63 66.5839L968.533 91.026V42.145L1020.63 17.7044V66.5839ZM1022.55 -84.5567L1074.65 -108.996V-60.1177L1022.55 -35.6788V-84.5567ZM1020.63 -33.877V15.0025L968.533 -9.43801V-58.3175L1020.63 -33.877ZM965.653 -59.6684L916.228 -36.4822C915.763 -36.8644 915.17 -37.1358 914.511 -37.2778V-83.6597L965.653 -59.6684ZM858.57 -108.983V-60.1146L806.469 -35.6756V-84.5426L858.57 -108.983ZM696.509 -32.9753V15.9011L644.408 40.34V-8.53632L696.509 -32.9753ZM590.385 -32.9753L642.488 -8.53632V40.34L616.437 28.1206L590.387 15.9011V-32.9753H590.385ZM642.488 91.0182L616.437 78.7987L593.05 67.8288C593.136 67.573 593.196 67.3093 593.196 67.0301C593.196 65.6105 591.999 64.4264 590.387 64.0801V17.7013L616.437 29.9208L642.488 42.1403V91.0182ZM534.445 40.34L482.344 15.8995V-32.98L534.445 -8.53944V40.34ZM428.323 -58.3206L480.424 -33.8785V15.001L428.323 -9.43957V-58.3206ZM376.965 15.5532L427.363 -8.0886L479.464 16.3519L455.797 27.4544L427.363 40.7924L376.965 17.1506C377.05 16.8948 377.111 16.6296 377.111 16.3519C377.111 16.0742 377.05 15.809 376.965 15.5532ZM480.424 66.5824L428.323 91.0244V42.1434L480.424 17.7029V66.5824ZM536.365 91.0182V42.1418L588.467 17.7029V64.0817C586.854 64.428 585.658 65.612 585.658 67.0316C585.658 67.3093 585.719 67.573 585.804 67.8304L536.365 91.0182ZM642.488 141.699L590.385 117.261V69.9816C591.043 69.8412 591.635 69.5682 592.101 69.1876L616.437 80.6021L642.488 92.8216V141.699ZM696.509 116.36L644.408 91.9199V43.042L696.509 67.4809V116.36ZM750.528 40.3447L698.427 15.9042V-32.9753L750.528 -8.53477V40.3447ZM752.448 -10.3366V-59.2129L804.549 -83.6519V-34.7755L752.448 -10.3366ZM858.57 -58.3034V-9.43644L806.469 15.0025V-33.8645L858.57 -58.3034ZM752.448 141.714V92.8325L804.549 68.392V114.774C802.936 115.12 801.74 116.303 801.74 117.724C801.74 118.003 801.802 118.267 801.886 118.523L752.448 141.714ZM858.57 41.2448L806.469 65.6869V16.8059L858.57 -7.63464V41.2448ZM860.49 -58.3128L909.928 -35.1234C909.844 -34.8676 909.782 -34.6039 909.782 -34.3278C909.782 -32.9082 910.979 -31.7242 912.591 -31.3778V15.0025L860.49 -9.43644V-58.3128ZM860.49 92.8294L910.877 69.1938C911.342 69.5744 911.935 69.8459 912.591 69.9878V117.267L860.488 141.706V92.8294H860.49ZM967.573 142.16L915.471 117.719L966.613 93.7295L967.573 93.2787L968.533 93.7295L1019.67 117.719L967.573 142.16ZM1023.51 117.719L1075.61 93.2787L1127.72 117.719L1075.61 142.16L1023.51 117.719Z" fill="#023BFF"/>
</svg>
