<svg width="254" height="34" viewBox="0 0 254 34" fill="none" xmlns="http://www.w3.org/2000/svg">
<path d="M66.4046 0L64.0811 8.65882L62.411 6.98878L46.2189 23.1991L37.6145 14.5947L26.8318 25.3593L24 22.5456L37.6145 8.94926L46.2189 17.5536L59.5974 4.17511L57.7458 2.32354L66.4046 0Z" fill="url(#paint0_linear_1549_4172)"/>
<path d="M71.7779 29.8065L67.8751 31.9122L64.3535 25.4135L55.967 28.3361L63.3551 23.562L60.9953 19.2053L46.2009 33.9998L35.2911 23.09L38.4316 19.9496L46.2009 27.7371L62.0663 11.8535L71.7779 29.8065Z" fill="url(#paint1_linear_1549_4172)"/>
<path d="M101.446 11.5156L99.5537 22.2829H97.3816L98.6228 15.3012L94.5114 22.2829H92.8668L91.1912 15.3012L89.95 22.2984H87.778L89.6863 11.5311H92.1376L94.1545 19.5213L98.9641 11.5311H101.446V11.5156Z" fill="#023BFF"/>
<path d="M105.434 13.2066L104.937 15.9993H108.568L108.273 17.6594H104.643L104.131 20.5762H108.226L107.916 22.2828H101.648L103.557 11.5H109.809L109.514 13.1911H105.434V13.2066Z" fill="#023BFF"/>
<path d="M118.327 12.2766C118.885 12.7731 119.18 13.4247 119.18 14.2315C119.18 14.4332 119.164 14.6349 119.133 14.8365C119.009 15.5347 118.699 16.1708 118.187 16.7449C117.675 17.3189 116.992 17.7068 116.139 17.9395L117.939 22.2992H115.425L113.812 18.0947H112.772L112.028 22.2992H109.855L111.764 11.5319H115.813C116.93 11.5164 117.752 11.7801 118.327 12.2766ZM116.93 14.4952C116.93 14.1074 116.806 13.7971 116.558 13.5799C116.31 13.3626 115.937 13.254 115.425 13.254H113.626L113.052 16.4811H114.851C115.425 16.4811 115.891 16.3415 116.232 16.0467C116.573 15.7519 116.791 15.364 116.884 14.8521C116.93 14.6814 116.93 14.5573 116.93 14.4952Z" fill="#023BFF"/>
<path d="M123.834 11.5156L121.941 22.2829H119.769L121.678 11.5156H123.834Z" fill="#023BFF"/>
<path d="M136.044 22.298L135.393 20.5604H130.987L130.335 22.298H127.853L131.824 12.0117H134.571L138.542 22.298H136.044ZM133.205 14.1993L131.592 18.621H134.803L133.205 14.1993Z" fill="#00B15D"/>
<path d="M138.48 17.1478C138.48 13.9672 140.87 11.8262 143.973 11.8262C146.222 11.8262 147.541 13.0518 148.255 14.3396L146.377 15.2705C145.943 14.4327 145.012 13.781 143.973 13.781C142.095 13.781 140.73 15.2084 140.73 17.1633C140.73 19.1026 142.095 20.5455 143.973 20.5455C145.028 20.5455 145.943 19.8784 146.377 19.0561L148.255 19.9714C147.525 21.2592 146.222 22.5004 143.973 22.5004C140.87 22.4848 138.48 20.3128 138.48 17.1478Z" fill="#00B15D"/>
<path d="M149.077 17.1478C149.077 13.9672 151.466 11.8262 154.569 11.8262C156.819 11.8262 158.138 13.0518 158.851 14.3396L156.974 15.2705C156.54 14.4327 155.609 13.781 154.569 13.781C152.692 13.781 151.327 15.2084 151.327 17.1633C151.327 19.1026 152.692 20.5455 154.569 20.5455C155.624 20.5455 156.54 19.8784 156.974 19.0561L158.851 19.9714C158.122 21.2592 156.819 22.5004 154.569 22.5004C151.466 22.4848 149.077 20.3128 149.077 17.1478Z" fill="#00B15D"/>
<path d="M159.674 17.1478C159.674 14.0448 161.939 11.8262 165.057 11.8262C168.16 11.8262 170.425 14.0448 170.425 17.1478C170.425 20.2507 168.16 22.4693 165.057 22.4693C161.939 22.4848 159.674 20.2507 159.674 17.1478ZM168.176 17.1478C168.176 15.2239 166.95 13.7655 165.057 13.7655C163.149 13.7655 161.923 15.2084 161.923 17.1478C161.923 19.0561 163.149 20.53 165.057 20.53C166.95 20.53 168.176 19.0716 168.176 17.1478Z" fill="#00B15D"/>
<path d="M171.977 18.171V11.9961H174.195V18.1089C174.195 19.5363 175.033 20.5292 176.616 20.5292C178.198 20.5292 179.021 19.5363 179.021 18.1089V11.9961H181.255V18.171C181.255 20.7154 179.75 22.4686 176.616 22.4686C173.482 22.4841 171.977 20.7154 171.977 18.171Z" fill="#00B15D"/>
<path d="M190.393 22.298L185.49 15.5801V22.298H183.303V12.0117H185.552L190.315 18.4814V12.0117H192.503V22.298H190.393Z" fill="#00B15D"/>
<path d="M196.925 22.298V13.9356H193.915V12.0117H202.122V13.9356H199.128V22.298H196.925Z" fill="#00B15D"/>
<path d="M203.518 22.298V12.0117H205.706V22.298H203.518Z" fill="#00B15D"/>
<path d="M214.844 22.298L209.942 15.5801V22.298H207.754V12.0117H210.004L214.767 18.4814V12.0117H216.954V22.298H214.844Z" fill="#00B15D"/>
<path d="M218.506 17.1478C218.506 13.8896 220.973 11.8262 223.998 11.8262C226.123 11.8262 227.473 12.9122 228.233 14.1224L226.434 15.1153C225.953 14.3861 225.068 13.7655 223.998 13.7655C222.121 13.7655 220.755 15.1929 220.755 17.1478C220.755 19.0871 222.121 20.53 223.998 20.53C225.456 20.53 226.341 19.5836 226.666 18.5131H223.455V16.5892H229.071C229.071 20.2662 227.085 22.4848 223.796 22.4848C220.973 22.4848 218.506 20.3904 218.506 17.1478Z" fill="#00B15D"/>
<defs>
<linearGradient id="paint0_linear_1549_4172" x1="63.7725" y1="2.20553" x2="29.5547" y2="19.0875" gradientUnits="userSpaceOnUse">
<stop stop-color="#023BFF"/>
<stop offset="1" stop-color="#3693FF"/>
</linearGradient>
<linearGradient id="paint1_linear_1549_4172" x1="69.0913" y1="22.8722" x2="42.6793" y2="22.8722" gradientUnits="userSpaceOnUse">
<stop stop-color="#00B15D"/>
<stop offset="0.979382" stop-color="#00E54B" stop-opacity="0.8"/>
</linearGradient>
</defs>
</svg>
