<svg width="18" height="18" viewBox="0 0 18 18" fill="none" xmlns="http://www.w3.org/2000/svg">
<g id="material-symbols:add">
<g id="Group 2">
<path id="Vector" d="M14.291 12.2656H14.4588L14.2294 10.5817C14.1689 10.5855 14.1088 10.5909 14.0475 10.5909C12.4559 10.5909 11.1613 9.29631 11.1613 7.7048C11.1613 6.31725 12.1459 5.15588 13.4531 4.8811L13.095 2.25H5.72792L5.42712 12.2656H14.2851C14.2874 12.2656 14.2891 12.2656 14.291 12.2656Z" fill="white"/>
<path id="Vector_2" d="M2.92283 3.44283C2.92283 3.45234 2.92219 3.46188 2.92092 3.47117L1.68127 12.8296C2.04224 12.4812 2.53219 12.2656 3.07224 12.2656H4.99337L5.29417 2.25H4.11587C3.45797 2.25 2.92283 2.78516 2.92283 3.44283Z" fill="white"/>
<path id="Vector_3" d="M12.7719 12.6992H5.20399C5.20165 12.6992 5.19952 12.6992 5.1972 12.6992H3.07226C2.3144 12.6992 1.68017 13.2382 1.53252 13.9529L1.53197 13.9572C1.53187 13.9579 1.53148 13.9583 1.53137 13.959C1.51092 14.06 1.5 14.1645 1.5 14.2714C1.5 15.1382 2.20529 15.8435 3.07226 15.8435H12.7755C12.4875 14.444 12.664 13.2247 12.7719 12.6992Z" fill="white"/>
<path id="Vector_4" d="M13.2157 12.6992C13.1214 13.1325 12.9053 14.4099 13.219 15.8435H14.4635L14.0951 12.6992H13.2157Z" fill="white"/>
<path id="Vector_5" d="M15.538 7.41016H12.5566V7.66726H15.538V7.41016Z" fill="white"/>
<path id="Vector_6" d="M12.5566 8.51949C12.5566 8.60921 12.6296 8.68221 12.7194 8.68221H15.3753C15.465 8.68221 15.538 8.60921 15.538 8.51949V8.10156H12.5566V8.51949Z" fill="white"/>
<path id="Vector_7" d="M12.7194 6.72852C12.6296 6.72852 12.5566 6.80151 12.5566 6.89124V6.97715H15.538V6.89124C15.538 6.80151 15.465 6.72852 15.3753 6.72852H12.7194Z" fill="white"/>
<path id="Vector_8" d="M14.0475 5.25195C12.6951 5.25195 11.5947 6.35209 11.5947 7.70447C11.5947 9.05685 12.6951 10.1572 14.0475 10.1572C15.3999 10.1572 16.5 9.05685 16.5 7.70447C16.5 6.35209 15.3999 5.25195 14.0475 5.25195ZM15.9714 6.89064V8.51832C15.9714 8.84695 15.7039 9.11442 15.3753 9.11442H12.7194C12.3908 9.11442 12.1233 8.84695 12.1233 8.51832V6.89064C12.1233 6.56201 12.3908 6.29454 12.7194 6.29454H15.3753C15.7039 6.29454 15.9714 6.56201 15.9714 6.89064Z" fill="white"/>
</g>
</g>
</svg>
