<svg width="240" height="106" viewBox="0 0 240 106" fill="none" xmlns="http://www.w3.org/2000/svg">
<rect width="148" height="71.1626" transform="translate(46)" fill="white"/>
<path d="M158.754 0L153.891 18.1231L150.395 14.6277L116.505 48.5563L98.4955 30.5471L75.927 53.0775L70 47.1885L98.4955 18.731L116.505 36.7401L144.506 8.73861L140.631 4.86323L158.754 0Z" fill="url(#paint0_linear_328_400)"/>
<path d="M170 62.3861L161.831 66.7934L154.46 53.1916L136.907 59.3086L152.371 49.3162L147.432 40.1977L116.467 71.1627L93.6323 48.3284L100.205 41.7554L116.467 58.0548L149.673 24.8102L170 62.3861Z" fill="url(#paint1_linear_328_400)"/>
<path d="M23.2173 87.1889L20.0022 105.478H16.3127L18.421 93.6192L11.4374 105.478H8.6439L5.79773 93.6192L3.68946 105.505H0L3.24147 87.2153H7.40529L10.8312 100.787L19.0008 87.2153H23.2173V87.1889Z" fill="#023BFF"/>
<path d="M29.9901 90.0615L29.1468 94.8051H35.3135L34.8128 97.6249H28.6461L27.7764 102.579H34.7337L34.2066 105.478H23.5599L26.8013 87.1626H37.4217L36.921 90.0351H29.9901V90.0615Z" fill="#023BFF"/>
<path d="M51.8897 88.4803C52.8385 89.3236 53.3392 90.4304 53.3392 91.8008C53.3392 92.1434 53.3128 92.486 53.2601 92.8286C53.0493 94.0145 52.5222 95.0949 51.6526 96.07C50.7829 97.0451 49.6234 97.7039 48.1739 98.0992L51.2309 105.505H46.9617L44.2209 98.3628H42.4553L41.1903 105.505H37.5008L40.7423 87.2153H47.6205C49.5179 87.1889 50.9147 87.637 51.8897 88.4803ZM49.5179 92.2488C49.5179 91.59 49.3071 91.0629 48.8855 90.6939C48.4638 90.325 47.8313 90.1405 46.9617 90.1405H43.9047L42.9296 95.622H45.9866C46.9617 95.622 47.7523 95.3848 48.332 94.8841C48.9118 94.3834 49.2808 93.7246 49.4389 92.8549C49.518 92.565 49.5179 92.3542 49.5179 92.2488Z" fill="#023BFF"/>
<path d="M61.2452 87.1889L58.03 105.478H54.3406L57.582 87.1889H61.2452Z" fill="#023BFF"/>
<path d="M81.9853 105.505L80.8784 102.553H73.3941L72.2872 105.505H68.0707L74.8172 88.0323H79.4817L86.2282 105.505H81.9853ZM77.1626 91.7481L74.4219 99.2588H79.877L77.1626 91.7481Z" fill="#00B15D"/>
<path d="M86.1228 96.7552C86.1228 91.3528 90.1812 87.716 95.4518 87.716C99.2731 87.716 101.513 89.798 102.725 91.9853L99.5366 93.5665C98.7987 92.1434 97.2175 91.0366 95.4518 91.0366C92.2631 91.0366 89.944 93.4611 89.944 96.7816C89.944 100.076 92.2631 102.527 95.4518 102.527C97.2439 102.527 98.7987 101.393 99.5366 99.9967L102.725 101.552C101.487 103.739 99.2731 105.847 95.4518 105.847C90.1812 105.821 86.1228 102.131 86.1228 96.7552Z" fill="#00B15D"/>
<path d="M104.122 96.7552C104.122 91.3528 108.181 87.716 113.451 87.716C117.272 87.716 119.512 89.798 120.725 91.9853L117.536 93.5665C116.798 92.1434 115.217 91.0366 113.451 91.0366C110.262 91.0366 107.943 93.4611 107.943 96.7816C107.943 100.076 110.262 102.527 113.451 102.527C115.243 102.527 116.798 101.393 117.536 99.9967L120.725 101.552C119.486 103.739 117.272 105.847 113.451 105.847C108.181 105.821 104.122 102.131 104.122 96.7552Z" fill="#00B15D"/>
<path d="M122.121 96.7552C122.121 91.4846 125.969 87.716 131.266 87.716C136.537 87.716 140.384 91.4846 140.384 96.7552C140.384 102.026 136.537 105.794 131.266 105.794C125.969 105.821 122.121 102.026 122.121 96.7552ZM136.563 96.7552C136.563 93.4874 134.481 91.0102 131.266 91.0102C128.025 91.0102 125.943 93.4611 125.943 96.7552C125.943 99.9967 128.025 102.5 131.266 102.5C134.481 102.5 136.563 100.023 136.563 96.7552Z" fill="#00B15D"/>
<path d="M143.02 98.4945V88.0059H146.788V98.3891C146.788 100.814 148.211 102.5 150.899 102.5C153.587 102.5 154.984 100.814 154.984 98.3891V88.0059H158.779V98.4945C158.779 102.816 156.223 105.794 150.899 105.794C145.576 105.821 143.02 102.816 143.02 98.4945Z" fill="#00B15D"/>
<path d="M174.301 105.505L165.973 94.0935V105.505H162.258V88.0323H166.079L174.169 99.0216V88.0323H177.885V105.505H174.301Z" fill="#00B15D"/>
<path d="M185.396 105.505V91.3001H180.283V88.0323H194.224V91.3001H189.138V105.505H185.396Z" fill="#00B15D"/>
<path d="M196.596 105.505V88.0323H200.312V105.505H196.596Z" fill="#00B15D"/>
<path d="M215.834 105.505L207.506 94.0935V105.505H203.791V88.0323H207.612L215.702 99.0216V88.0323H219.418V105.505H215.834Z" fill="#00B15D"/>
<path d="M222.053 96.7552C222.053 91.221 226.243 87.716 231.382 87.716C234.993 87.716 237.286 89.5608 238.577 91.6163L235.52 93.3029C234.703 92.0643 233.201 91.0102 231.382 91.0102C228.194 91.0102 225.875 93.4347 225.875 96.7552C225.875 100.049 228.194 102.5 231.382 102.5C233.86 102.5 235.362 100.893 235.915 99.0743H230.46V95.8065H240C240 102.052 236.627 105.821 231.04 105.821C226.243 105.821 222.053 102.263 222.053 96.7552Z" fill="#00B15D"/>
<defs>
<linearGradient id="paint0_linear_328_400" x1="153.245" y1="4.61623" x2="81.6261" y2="39.9506" gradientUnits="userSpaceOnUse">
<stop stop-color="#023BFF"/>
<stop offset="1" stop-color="#3693FF"/>
</linearGradient>
<linearGradient id="paint1_linear_328_400" x1="164.377" y1="47.8725" x2="109.096" y2="47.8725" gradientUnits="userSpaceOnUse">
<stop stop-color="#00B15D"/>
<stop offset="0.979382" stop-color="#00E54B" stop-opacity="0.8"/>
</linearGradient>
</defs>
</svg>
