<svg width="21" height="20" viewBox="0 0 21 20" fill="none" xmlns="http://www.w3.org/2000/svg">
<path d="M2.92517 11.0665C2.86877 10.0576 3.18205 9.0627 3.80636 8.26812C4.43068 7.47354 5.32321 6.93376 6.31684 6.74986L5.6585 7.39986C5.58135 7.47701 5.52015 7.5686 5.4784 7.66941C5.43664 7.77021 5.41515 7.87825 5.41515 7.98736C5.41515 8.20772 5.50269 8.41905 5.6585 8.57486C5.81432 8.73068 6.02565 8.81821 6.246 8.81821C6.46636 8.81821 6.67769 8.73068 6.8335 8.57486L8.99184 6.41653C9.06909 6.33943 9.13038 6.24786 9.1722 6.14705C9.21402 6.04624 9.23554 5.93817 9.23554 5.82903C9.23554 5.71989 9.21402 5.61182 9.1722 5.51101C9.13038 5.4102 9.06909 5.31862 8.99184 5.24153L6.84184 3.08319C6.68602 2.92738 6.47469 2.83984 6.25434 2.83984C6.03398 2.83984 5.82265 2.92738 5.66684 3.08319C5.51102 3.23901 5.42349 3.45034 5.42349 3.67069C5.42349 3.89105 5.51102 4.10238 5.66684 4.25819L6.40017 4.99153V5.04153C4.90837 5.21879 3.54259 5.96516 2.58774 7.12496C1.63288 8.28477 1.16266 9.76845 1.27517 11.2665C1.49184 14.3499 4.2085 16.6665 7.30017 16.6665H8.75017C9.2085 16.6665 9.5835 16.2915 9.5835 15.8332C9.5835 15.3749 9.2085 14.9999 8.75017 14.9999H7.26684C5.01684 14.9999 3.04184 13.2999 2.92517 11.0665ZM11.2502 12.4999V14.9999C11.2502 15.9165 12.0002 16.6665 12.9168 16.6665H17.0835C18.0002 16.6665 18.7502 15.9165 18.7502 14.9999V12.4999C18.7502 11.5832 18.0002 10.8332 17.0835 10.8332H12.9168C12.0002 10.8332 11.2502 11.5832 11.2502 12.4999ZM17.0835 14.9999H12.9168V12.4999H17.0835V14.9999ZM17.0835 3.33319H12.9168C12.0002 3.33319 11.2502 4.08319 11.2502 4.99986V7.49986C11.2502 8.41653 12.0002 9.16653 12.9168 9.16653H17.0835C18.0002 9.16653 18.7502 8.41653 18.7502 7.49986V4.99986C18.7502 4.08319 18.0002 3.33319 17.0835 3.33319Z" fill="#131515"/>
</svg>
