<svg width="18" height="18" viewBox="0 0 18 18" fill="none" xmlns="http://www.w3.org/2000/svg">
<g id="mdi:user">
<g id="Group 8">
<g id="Group">
<path id="Vector" d="M11.2623 3.20805V2.7564C11.2623 2.0637 10.6986 1.5 10.0058 1.5H2.75655C2.0637 1.5 1.5 2.0637 1.5 2.7564V3.20805H11.2623Z" fill="#E4E4E4"/>
<path id="Vector_2" d="M1.5 4.4082V6.8436C1.5 7.5366 2.0637 8.10015 2.75655 8.10015H10.0058C10.6986 8.10015 11.2623 7.53645 11.2623 6.8436V4.4082H1.5ZM3.1281 6.81555V5.61555H6.8832V6.81555H3.1281Z" fill="#E4E4E4"/>
</g>
<path id="Vector_3" d="M6.1983 14.3568L4.05465 12.2132V13.7568H3.99465C3.2808 13.7568 2.7 13.1762 2.7 12.4623V9.49414H1.5V12.4623C1.5 13.8378 2.619 14.9568 3.99465 14.9568H4.05465V16.5005L6.1983 14.3568Z" fill="#E4E4E4"/>
<g id="Group_2">
<path id="Vector_4" d="M16.5 11.6084V11.1568C16.5 10.4639 15.9363 9.90039 15.2434 9.90039H7.99422C7.30137 9.90039 6.73767 10.4641 6.73767 11.1568V11.6084H16.5Z" fill="#E4E4E4"/>
<path id="Vector_5" d="M6.73767 12.8086V15.244C6.73767 15.9368 7.30137 16.5005 7.99422 16.5005H15.2434C15.9363 16.5005 16.5 15.9368 16.5 15.244V12.8086H6.73767ZM8.36562 15.2158V14.0158H11.0707V15.2158H8.36562Z" fill="#E4E4E4"/>
</g>
<path id="Vector_6" d="M11.8018 3.64365L13.9454 5.7873V4.24365H14.0054C14.7193 4.24365 15.3001 4.8243 15.3001 5.53815V8.50635H16.5001V5.53815C16.5001 4.16265 15.3811 3.04365 14.0054 3.04365H13.9454V1.5L11.8018 3.64365Z" fill="#E4E4E4"/>
</g>
</g>
</svg>
